<mxfile host="app.diagrams.net" modified="2023-10-20T08:50:57.111Z" agent="Mozilla/5.0 (Windows NT 10.0; Win64; x64) AppleWebKit/537.36 (KHTML, like Gecko) Chrome/118.0.0.0 Safari/537.36" etag="c6hYZk9rpE3lZe1Nd3AT" version="22.0.5" type="github">
  <diagram name="Страница — 1" id="DNMvd5dhDP0ZgoRwr1V2">
    <mxGraphModel dx="1564" dy="378" grid="1" gridSize="10" guides="1" tooltips="1" connect="1" arrows="1" fold="1" page="1" pageScale="1" pageWidth="827" pageHeight="1169" math="0" shadow="0">
      <root>
        <mxCell id="0" />
        <mxCell id="1" parent="0" />
        <mxCell id="20GTolLZ2_xDN0YHXDCN-2" style="edgeStyle=orthogonalEdgeStyle;rounded=0;orthogonalLoop=1;jettySize=auto;html=1;exitX=1;exitY=0.5;exitDx=0;exitDy=0;entryX=0.5;entryY=0;entryDx=0;entryDy=0;" parent="1" source="37RLYazfFerKv1l8wogr-28" target="37RLYazfFerKv1l8wogr-29" edge="1">
          <mxGeometry relative="1" as="geometry" />
        </mxCell>
        <mxCell id="20GTolLZ2_xDN0YHXDCN-8" style="edgeStyle=orthogonalEdgeStyle;rounded=0;orthogonalLoop=1;jettySize=auto;html=1;exitX=1;exitY=0.5;exitDx=0;exitDy=0;entryX=0.75;entryY=0;entryDx=0;entryDy=0;" parent="1" source="37RLYazfFerKv1l8wogr-28" target="37RLYazfFerKv1l8wogr-30" edge="1">
          <mxGeometry relative="1" as="geometry" />
        </mxCell>
        <mxCell id="37RLYazfFerKv1l8wogr-28" value="Создание заказа&lt;br&gt;&lt;br&gt;&lt;br&gt;&lt;br&gt;&lt;br&gt;&lt;br&gt;&lt;br&gt;&lt;div style=&quot;text-align: right;&quot;&gt;А1&lt;/div&gt;" style="rounded=0;whiteSpace=wrap;html=1;" parent="1" vertex="1">
          <mxGeometry x="180" y="200" width="100" height="120" as="geometry" />
        </mxCell>
        <mxCell id="WZMtwQCxnaZo9OExtr6U-21" style="edgeStyle=orthogonalEdgeStyle;rounded=0;orthogonalLoop=1;jettySize=auto;html=1;exitX=1;exitY=0.5;exitDx=0;exitDy=0;entryX=0;entryY=0.5;entryDx=0;entryDy=0;" edge="1" parent="1" source="37RLYazfFerKv1l8wogr-29" target="37RLYazfFerKv1l8wogr-30">
          <mxGeometry relative="1" as="geometry" />
        </mxCell>
        <mxCell id="37RLYazfFerKv1l8wogr-29" value="Выполнение заказа&lt;br&gt;&lt;br&gt;&lt;br&gt;&lt;br&gt;&lt;br&gt;&lt;br&gt;&lt;br&gt;&lt;div style=&quot;text-align: right;&quot;&gt;А2&lt;/div&gt;" style="rounded=0;whiteSpace=wrap;html=1;" parent="1" vertex="1">
          <mxGeometry x="320" y="360" width="120" height="120" as="geometry" />
        </mxCell>
        <mxCell id="WZMtwQCxnaZo9OExtr6U-12" style="edgeStyle=orthogonalEdgeStyle;rounded=0;orthogonalLoop=1;jettySize=auto;html=1;exitX=1;exitY=0.25;exitDx=0;exitDy=0;" edge="1" parent="1" source="37RLYazfFerKv1l8wogr-30">
          <mxGeometry relative="1" as="geometry">
            <mxPoint x="780" y="550.4117647058824" as="targetPoint" />
          </mxGeometry>
        </mxCell>
        <mxCell id="37RLYazfFerKv1l8wogr-30" value="Приемка работы&lt;br&gt;&lt;br&gt;&lt;br&gt;&lt;br&gt;&lt;br&gt;&lt;br&gt;&lt;br&gt;&lt;div style=&quot;text-align: right;&quot;&gt;&lt;br&gt;&lt;/div&gt;" style="rounded=0;whiteSpace=wrap;html=1;" parent="1" vertex="1">
          <mxGeometry x="500" y="520" width="100" height="120" as="geometry" />
        </mxCell>
        <mxCell id="20GTolLZ2_xDN0YHXDCN-9" value="Список заказанных услуг" style="text;html=1;strokeColor=none;fillColor=none;align=center;verticalAlign=middle;whiteSpace=wrap;rounded=0;" parent="1" vertex="1">
          <mxGeometry x="300" y="230" width="160" height="30" as="geometry" />
        </mxCell>
        <mxCell id="20GTolLZ2_xDN0YHXDCN-10" value="Заказ готов" style="text;html=1;strokeColor=none;fillColor=none;align=center;verticalAlign=middle;whiteSpace=wrap;rounded=0;" parent="1" vertex="1">
          <mxGeometry x="470" y="450" width="60" height="30" as="geometry" />
        </mxCell>
        <mxCell id="20GTolLZ2_xDN0YHXDCN-13" style="edgeStyle=orthogonalEdgeStyle;rounded=0;orthogonalLoop=1;jettySize=auto;html=1;exitX=1;exitY=0.75;exitDx=0;exitDy=0;entryX=-0.001;entryY=0.631;entryDx=0;entryDy=0;entryPerimeter=0;" parent="1" source="37RLYazfFerKv1l8wogr-30" target="37RLYazfFerKv1l8wogr-29" edge="1">
          <mxGeometry relative="1" as="geometry">
            <Array as="points">
              <mxPoint x="670" y="610" />
              <mxPoint x="670" y="660" />
              <mxPoint x="300" y="660" />
              <mxPoint x="300" y="436" />
            </Array>
          </mxGeometry>
        </mxCell>
        <mxCell id="20GTolLZ2_xDN0YHXDCN-14" value="Работа не принята" style="text;html=1;strokeColor=none;fillColor=none;align=center;verticalAlign=middle;whiteSpace=wrap;rounded=0;" parent="1" vertex="1">
          <mxGeometry x="680" y="610" width="60" height="50" as="geometry" />
        </mxCell>
        <mxCell id="WZMtwQCxnaZo9OExtr6U-5" style="edgeStyle=orthogonalEdgeStyle;rounded=0;orthogonalLoop=1;jettySize=auto;html=1;exitX=0.5;exitY=0;exitDx=0;exitDy=0;entryX=0.25;entryY=1;entryDx=0;entryDy=0;" edge="1" parent="1" source="WZMtwQCxnaZo9OExtr6U-1" target="37RLYazfFerKv1l8wogr-30">
          <mxGeometry relative="1" as="geometry" />
        </mxCell>
        <mxCell id="WZMtwQCxnaZo9OExtr6U-7" style="edgeStyle=orthogonalEdgeStyle;rounded=0;orthogonalLoop=1;jettySize=auto;html=1;exitX=0.5;exitY=0;exitDx=0;exitDy=0;entryX=0.25;entryY=1;entryDx=0;entryDy=0;" edge="1" parent="1" source="WZMtwQCxnaZo9OExtr6U-1" target="37RLYazfFerKv1l8wogr-28">
          <mxGeometry relative="1" as="geometry" />
        </mxCell>
        <mxCell id="WZMtwQCxnaZo9OExtr6U-1" value="Клиент" style="text;html=1;strokeColor=none;fillColor=none;align=center;verticalAlign=middle;whiteSpace=wrap;rounded=0;" vertex="1" parent="1">
          <mxGeometry x="180" y="740" width="50" height="30" as="geometry" />
        </mxCell>
        <mxCell id="WZMtwQCxnaZo9OExtr6U-6" style="edgeStyle=orthogonalEdgeStyle;rounded=0;orthogonalLoop=1;jettySize=auto;html=1;exitX=0.5;exitY=0;exitDx=0;exitDy=0;entryX=0.75;entryY=1;entryDx=0;entryDy=0;" edge="1" parent="1" source="WZMtwQCxnaZo9OExtr6U-2" target="37RLYazfFerKv1l8wogr-28">
          <mxGeometry relative="1" as="geometry">
            <Array as="points">
              <mxPoint x="380" y="710" />
              <mxPoint x="255" y="710" />
            </Array>
          </mxGeometry>
        </mxCell>
        <mxCell id="WZMtwQCxnaZo9OExtr6U-8" style="edgeStyle=orthogonalEdgeStyle;rounded=0;orthogonalLoop=1;jettySize=auto;html=1;exitX=0.5;exitY=0;exitDx=0;exitDy=0;entryX=0.5;entryY=1;entryDx=0;entryDy=0;" edge="1" parent="1" source="WZMtwQCxnaZo9OExtr6U-2" target="37RLYazfFerKv1l8wogr-29">
          <mxGeometry relative="1" as="geometry" />
        </mxCell>
        <mxCell id="WZMtwQCxnaZo9OExtr6U-2" value="Сотрудник" style="text;html=1;strokeColor=none;fillColor=none;align=center;verticalAlign=middle;whiteSpace=wrap;rounded=0;" vertex="1" parent="1">
          <mxGeometry x="350" y="740" width="60" height="30" as="geometry" />
        </mxCell>
        <mxCell id="WZMtwQCxnaZo9OExtr6U-10" value="Список оказываемых услуг" style="text;html=1;strokeColor=none;fillColor=none;align=center;verticalAlign=middle;whiteSpace=wrap;rounded=0;" vertex="1" parent="1">
          <mxGeometry x="150" y="60" width="80" height="50" as="geometry" />
        </mxCell>
        <mxCell id="WZMtwQCxnaZo9OExtr6U-13" value="Работа принята" style="text;html=1;strokeColor=none;fillColor=none;align=center;verticalAlign=middle;whiteSpace=wrap;rounded=0;" vertex="1" parent="1">
          <mxGeometry x="620" y="500" width="60" height="50" as="geometry" />
        </mxCell>
        <mxCell id="WZMtwQCxnaZo9OExtr6U-16" style="edgeStyle=orthogonalEdgeStyle;rounded=0;orthogonalLoop=1;jettySize=auto;html=1;exitX=1;exitY=0.5;exitDx=0;exitDy=0;entryX=0.5;entryY=0;entryDx=0;entryDy=0;" edge="1" parent="1" source="WZMtwQCxnaZo9OExtr6U-14" target="37RLYazfFerKv1l8wogr-28">
          <mxGeometry relative="1" as="geometry">
            <Array as="points">
              <mxPoint x="230" y="110" />
            </Array>
          </mxGeometry>
        </mxCell>
        <mxCell id="WZMtwQCxnaZo9OExtr6U-14" value="Административный блок" style="rounded=0;whiteSpace=wrap;html=1;" vertex="1" parent="1">
          <mxGeometry x="10" y="50" width="130" height="120" as="geometry" />
        </mxCell>
        <mxCell id="WZMtwQCxnaZo9OExtr6U-18" value="Список &lt;br&gt;желаемых услуг" style="text;html=1;align=center;verticalAlign=middle;resizable=0;points=[];autosize=1;strokeColor=none;fillColor=none;" vertex="1" parent="1">
          <mxGeometry x="-110" y="190" width="110" height="40" as="geometry" />
        </mxCell>
        <mxCell id="WZMtwQCxnaZo9OExtr6U-19" value="" style="endArrow=classic;html=1;rounded=0;entryX=0;entryY=0.25;entryDx=0;entryDy=0;" edge="1" parent="1" target="37RLYazfFerKv1l8wogr-28">
          <mxGeometry width="50" height="50" relative="1" as="geometry">
            <mxPoint x="-100" y="230" as="sourcePoint" />
            <mxPoint x="80" y="230" as="targetPoint" />
          </mxGeometry>
        </mxCell>
        <mxCell id="WZMtwQCxnaZo9OExtr6U-24" style="edgeStyle=orthogonalEdgeStyle;rounded=0;orthogonalLoop=1;jettySize=auto;html=1;exitX=1;exitY=0.25;exitDx=0;exitDy=0;entryX=0.75;entryY=0;entryDx=0;entryDy=0;" edge="1" parent="1" source="37RLYazfFerKv1l8wogr-28" target="37RLYazfFerKv1l8wogr-28">
          <mxGeometry relative="1" as="geometry">
            <Array as="points">
              <mxPoint x="320" y="230" />
              <mxPoint x="320" y="150" />
              <mxPoint x="255" y="150" />
            </Array>
          </mxGeometry>
        </mxCell>
        <mxCell id="WZMtwQCxnaZo9OExtr6U-25" value="Осмотр&lt;br&gt;внешнего вида автомобиля" style="text;html=1;strokeColor=none;fillColor=none;align=center;verticalAlign=middle;whiteSpace=wrap;rounded=0;" vertex="1" parent="1">
          <mxGeometry x="320" y="150" width="100" height="50" as="geometry" />
        </mxCell>
      </root>
    </mxGraphModel>
  </diagram>
</mxfile>
